<svg width="123" height="124" xmlns="http://www.w3.org/2000/svg" xmlns:xlink="http://www.w3.org/1999/xlink" xml:space="preserve" overflow="hidden"><defs><clipPath id="clip0"><rect x="498" y="660" width="123" height="124"/></clipPath></defs><g clip-path="url(#clip0)" transform="translate(-498 -660)"><path d="M498 722C498 687.758 525.535 660 559.5 660 593.466 660 621 687.758 621 722 621 756.242 593.466 784 559.5 784 525.535 784 498 756.242 498 722Z" fill="#F27405" fill-rule="evenodd"/><path d="M559.472 715.006C555.619 715.006 552 717.867 552 721.984 552 725.841 555.447 729 559.541 729 563.718 729 566.993 725.841 566.993 721.984 566.752 721.602 566.752 721.214 566.67 720.754 566.594 720.191 566.037 719.816 565.507 719.816 565.452 719.816 565.404 719.822 565.355 719.828 564.702 719.984 564.289 720.521 564.454 721.136 564.956 724.243 562.238 726.722 559.287 726.722 558.351 726.722 557.394 726.469 556.507 725.919 552.33 723.298 554.381 717.129 559.376 717.129 560.525 717.129 561.667 717.518 562.569 718.21 562.782 718.379 563.043 718.456 563.298 718.456 563.642 718.456 563.979 718.32 564.206 718.055 564.619 717.518 564.537 716.903 564.048 716.515 562.631 715.472 561.034 715.006 559.472 715.006Z" fill="#001633" fill-rule="evenodd"/><path d="M526.924 698.642C527.729 698.642 528.562 698.903 529.314 699.486 530.913 700.679 531.235 702.99 530.113 704.666 529.328 705.818 528.106 706.361 526.89 706.361 525.151 706.361 523.425 705.249 523.002 703.232 522.525 700.699 524.627 698.642 526.924 698.642ZM548.668 704.27C549.306 704.592 556.498 708.659 557.062 709.055L548.668 713.846 548.668 704.27ZM570.016 704.27 570.016 713.846 561.615 709.055 570.016 704.27ZM537.124 699.198C538.917 699.198 540.717 699.653 542.349 700.598 544.827 702.039 543.947 701.476 546.425 702.836L546.425 715.119 535.633 721.344 531.712 719.113C529.234 717.753 527.555 715.441 526.756 712.646 526.36 711.373 526.198 709.933 526.44 708.659L526.44 708.659C526.588 708.666 526.736 708.673 526.883 708.673 531.141 708.673 534.297 704.29 532.591 700.203 534.035 699.539 535.58 699.198 537.124 699.198ZM581.687 699.245C587.603 699.245 592.398 703.949 592.398 709.852 592.398 713.605 590.242 717.196 586.965 719.113L583.124 721.344C581.687 720.547 573.609 715.836 572.333 715.119L572.333 702.99C575.368 701.396 577.53 699.245 581.687 699.245ZM546.425 717.592 546.425 727.408 537.95 722.537 546.425 717.592ZM572.333 717.753C573.374 718.309 579.767 721.981 580.807 722.617L572.333 727.489 572.333 717.753ZM559.298 710.254 570.016 716.318 570.016 728.682 559.298 734.746 548.587 728.682 548.587 716.318 559.298 710.254ZM570.016 731.315 570.016 740.891C569.371 740.569 562.179 736.502 561.615 736.106L570.016 731.315ZM548.668 731.396 557.062 736.18 548.668 740.971 548.668 731.396ZM582.963 723.897 586.885 726.129C589.363 727.489 591.042 729.801 591.921 732.595 592.163 733.788 592.237 734.987 592.237 736.18 592.096 736.173 591.948 736.167 591.807 736.167 587.482 736.167 584.548 740.783 586.401 744.878 584.884 745.581 583.205 745.977 581.519 745.977 579.753 745.977 577.967 745.541 576.328 744.563 573.77 743.042 574.649 743.685 572.172 742.244L572.172 730.122 582.963 723.897ZM592.062 738.351C592.801 738.351 593.533 738.559 594.158 738.974 597.119 740.971 596.078 745.36 592.801 746.077 592.539 746.124 592.284 746.151 592.029 746.151 589.007 746.151 587.033 742.747 588.805 740.093 589.557 738.941 590.813 738.351 592.062 738.351ZM559.298 737.46C560.581 738.257 568.572 742.727 570.016 743.524L570.016 748.228C570.016 754.132 565.214 758.923 559.298 758.923 553.382 758.923 548.587 754.132 548.587 748.228L548.587 743.524 559.298 737.46ZM559.298 684.007C552.18 684.007 546.425 689.83 546.425 696.852L546.425 700.283C544.504 699.164 545.23 699.56 543.39 698.608 541.375 697.435 539.166 696.879 536.983 696.879 535.009 696.879 533.061 697.335 531.315 698.206 530.013 696.832 528.435 696.243 526.897 696.243 523.338 696.243 520 699.432 520.84 703.553 521.242 705.543 522.518 707.145 524.197 707.942 523.559 713.048 525.957 718.235 530.597 720.862 532.195 721.82 531.712 721.505 533.317 722.383L530.597 723.897C526.595 726.209 524.117 730.518 524.117 735.148 524.117 741.849 529.234 747.431 535.949 747.913L536.03 747.913C536.594 747.913 537.151 747.511 537.151 746.955 537.232 746.318 536.755 745.755 536.11 745.755 530.597 745.28 526.44 740.649 526.44 735.148 526.44 731.396 528.515 727.804 531.792 725.894L535.714 723.656 546.506 729.881 546.506 742.01C542.906 744 542.026 744.717 540.348 745.36 539.71 745.514 539.387 746.158 539.548 746.714 539.689 747.277 540.2 747.525 540.697 747.525 540.771 747.525 540.838 747.525 540.912 747.511 542.987 746.955 544.028 745.997 546.506 744.717L546.506 748.148C546.506 755.17 552.341 760.993 559.379 760.993 566.497 760.993 572.333 755.17 572.333 748.148L572.333 744.878C575.529 746.633 577.692 748.228 581.687 748.228 583.762 748.228 586.005 747.752 587.926 746.714 589.014 747.799 590.511 748.429 592.096 748.429 592.485 748.429 592.882 748.389 593.278 748.309 599.113 747.116 599.993 739.055 594.48 736.582 594.957 731.717 592.559 726.691 588.08 724.138 586.482 723.18 586.965 723.495 585.367 722.617L588.08 721.103C594.319 717.592 596.4 709.618 592.882 703.473 590.558 699.486 586.321 697.007 581.607 697.007 576.886 697.007 574.173 699.486 572.172 700.364 572.091 697.569 572.413 696.289 571.93 694.219 571.782 693.636 571.305 693.247 570.674 693.247 570.614 693.247 570.553 693.254 570.493 693.261 569.935 693.422 569.532 693.978 569.613 694.695 570.016 696.45 569.774 697.489 569.935 701.637L559.218 707.782 548.507 701.637 548.507 697.007C548.507 691.103 553.301 686.319 559.218 686.319 562.737 686.319 565.933 687.994 568.015 690.868 568.256 691.21 568.626 691.371 568.982 691.371 569.21 691.371 569.425 691.311 569.613 691.183 570.09 690.788 570.17 690.071 569.935 689.589 567.531 686.077 563.536 684.007 559.298 684.007Z" fill="#001633" fill-rule="evenodd"/></g></svg>