<svg width="318" height="260" xmlns="http://www.w3.org/2000/svg" xmlns:xlink="http://www.w3.org/1999/xlink" xml:space="preserve" overflow="hidden"><g transform="translate(-2737 -749)"><path d="M0 0 25.0948 0 25.0948 43.0032 50.1897 43.0032" stroke="#667E92" stroke-width="3.4375" stroke-linejoin="round" stroke-miterlimit="10" fill="none" fill-rule="evenodd" transform="matrix(-6.12323e-17 -1 -1 6.12323e-17 2789.5 812.689)"/><path d="M3003.5 812.689 3003.5 787.595 3046.5 787.595 3046.5 762.5" stroke="#667E92" stroke-width="3.4375" stroke-linejoin="round" stroke-miterlimit="10" fill="none" fill-rule="evenodd"/><path d="M2789.5 958.5 2789.5 983.595 2746.5 983.595 2746.5 1008.69" stroke="#667E92" stroke-width="3.4375" stroke-linejoin="round" stroke-miterlimit="10" fill="none" fill-rule="evenodd"/><path d="M0 0 25.0948 0 25.0948 43.0032 50.1897 43.0032" stroke="#667E92" stroke-width="3.4375" stroke-linejoin="round" stroke-miterlimit="10" fill="none" fill-rule="evenodd" transform="matrix(1.83697e-16 1 1 -1.83697e-16 3003.5 958.5)"/><path d="M2770.72 877.5 2738.5 877.5" stroke="#667E92" stroke-width="3.4375" stroke-linejoin="round" stroke-miterlimit="10" fill="none" fill-rule="evenodd"/><path d="M3054.72 877.5 3022.5 877.5" stroke="#667E92" stroke-width="3.4375" stroke-linejoin="round" stroke-miterlimit="10" fill="none" fill-rule="evenodd"/><path d="M2872.58 754.609C2887.69 754.609 2888.36 774.587 2888.37 775.376L2888.37 974.932C2886.04 977.146 2876.76 984.375 2855.62 984.375 2829.61 984.375 2816.13 968.698 2814.31 953.169 2814.17 952.073 2813.37 951.151 2812.31 950.823 2811.67 950.638 2796.88 945.993 2797.19 929.749 2797.31 923.769 2797.98 919.606 2799.34 916.709 2799.34 916.709 2800.58 914.877 2800.59 914.654 2800.89 914.273 2801.2 913.934 2801.54 913.621 2804.42 910.894 2809.53 909.665 2818.32 909.665 2819.53 909.665 2820.8 909.686 2822.15 909.734 2828.68 909.946 2835.87 910.046 2843.57 910.046 2844.67 910.046 2845.78 910.046 2846.9 910.041L2846.97 910.041C2846.98 910.041 2846.99 910.041 2847 910.041 2856.26 910.041 2863.76 917.525 2863.76 926.751L2863.76 936.994C2863.73 938.572 2865 939.875 2866.58 939.875 2868.17 939.875 2869.45 938.572 2869.4 936.994L2869.4 926.751C2869.4 914.421 2859.37 904.422 2847 904.422 2846.99 904.422 2846.98 904.422 2846.97 904.422L2846.89 904.422C2845.88 904.427 2844.88 904.427 2843.89 904.427 2836.13 904.427 2828.89 904.31 2822.32 904.114 2820.95 904.067 2819.64 904.046 2818.39 904.046 2807.85 904.046 2801.7 905.698 2797.67 909.527 2797.26 909.903 2796.88 910.316 2796.54 910.729 2786.56 905.295 2786.76 891.091 2786.76 890.937L2786.76 890.868 2786.76 862.713C2786.76 854.816 2788.71 849.022 2792.53 845.457 2796.45 841.835 2801.36 841.58 2802.68 841.58 2802.9 841.58 2803.02 841.586 2803.02 841.586 2803.1 841.596 2803.18 841.596 2803.26 841.596 2804.79 841.596 2806.06 840.357 2806.06 838.794L2806.06 812.938C2806.06 807.694 2807.51 803.685 2810.37 801.01 2814.34 797.276 2820.07 797.011 2821.66 797.011 2821.92 797.011 2822.07 797.017 2822.08 797.017 2822.15 797.022 2822.21 797.022 2822.28 797.022 2824.88 797.022 2826.1 793.738 2824.04 792.049 2823.06 791.244 2822.2 790.042 2823.2 787.219 2825.19 781.663 2833.52 773.437 2844.43 766.314 2855.26 759.201 2866.3 754.609 2872.58 754.609ZM2872.57 749.005C2856.21 749.005 2822.99 771.075 2817.88 785.349 2817.06 787.663 2816.9 789.84 2817.4 791.773 2814.18 792.324 2809.99 793.675 2806.55 796.879 2802.49 800.666 2800.44 806.084 2800.44 812.954L2800.44 836.104C2797.45 836.448 2792.8 837.592 2788.76 841.294 2783.7 845.939 2781.12 853.153 2781.12 862.713L2781.12 890.831C2781.11 892.033 2781 908.669 2793.7 915.592 2792.36 919.108 2791.67 923.647 2791.55 929.643 2791.22 946.49 2804.14 953.513 2808.94 955.537 2810.42 964.62 2815.18 972.893 2822.46 979.01 2831.01 986.192 2842.46 989.995 2855.62 989.995 2883.46 989.995 2893 978.29 2893.4 977.797 2893.79 977.299 2894 976.701 2894 976.065L2894 775.307C2893.81 766.208 2889.08 749.005 2872.57 749.005Z" fill="#445D73" fill-rule="evenodd"/><path d="M2891.22 934.005C2891.18 934.005 2891.15 934.005 2891.12 934.005L2854.73 934.005C2842.18 934.021 2832 944.41 2832 957.231L2832 958.149C2832 959.712 2833.24 961 2834.77 961 2836.32 961 2837.57 959.712 2837.56 958.149L2837.56 957.231C2837.57 947.551 2845.26 939.702 2854.73 939.702L2891.12 939.702C2891.14 939.702 2891.16 939.702 2891.18 939.702 2892.72 939.702 2893.99 938.429 2893.99 936.856 2893.99 935.272 2892.74 934.005 2891.22 934.005Z" fill="#445D73" fill-rule="evenodd"/><path d="M2803.73 836.005C2802.22 836.037 2801 837.277 2801 838.791 2801 840.305 2802.22 841.53 2803.73 841.583L2827.36 841.583C2838.98 841.583 2848.36 850.919 2848.38 862.447L2848.38 876.209C2848.38 877.754 2849.64 878.995 2851.19 878.995 2852.73 878.995 2853.99 877.754 2853.99 876.224L2853.99 862.447C2853.98 847.838 2842.07 836.021 2827.36 836.005Z" fill="#445D73" fill-rule="evenodd"/><path d="M2850.75 862C2849.22 862.057 2848.01 863.373 2848.01 865 2848.01 866.627 2849.22 867.938 2850.75 867.994L2890.27 867.994C2891.8 867.938 2892.99 866.627 2892.99 865 2892.99 863.373 2891.8 862.057 2890.27 862Z" fill="#445D73" fill-rule="evenodd"/><path d="M2846.18 876C2837.8 876 2831.02 882.701 2831.01 890.962L2831.01 893.81C2831.05 895.286 2832.28 896.477 2833.79 896.477 2835.3 896.477 2836.54 895.286 2836.58 893.81L2836.58 890.962C2836.58 885.736 2840.87 881.495 2846.18 881.479L2855.52 881.479C2860.99 881.495 2865.42 885.85 2865.42 891.247L2865.42 895.25C2865.42 896.778 2866.68 898 2868.21 898 2869.76 898 2871 896.778 2871 895.25L2871 891.247C2870.98 882.836 2864.07 876 2855.52 876Z" fill="#445D73" fill-rule="evenodd"/><path d="M2854.26 791C2854.23 791 2854.21 791 2854.18 791L2822.67 791C2821.18 791.04 2820 792.377 2820 793.992 2820 795.623 2821.18 796.96 2822.67 796.994L2854.18 796.994C2854.21 796.994 2854.23 797 2854.26 797 2855.77 797 2856.99 795.663 2856.99 793.992 2856.99 792.337 2855.77 791 2854.26 791Z" fill="#445D73" fill-rule="evenodd"/><path d="M2874.22 775C2874.19 775 2874.16 775 2874.13 775L2869.54 775C2859.85 775 2852.02 782.991 2852 792.832L2852 795.58C2852.02 805.196 2859.67 812.995 2869.12 812.995L2890.28 812.995C2891.79 812.963 2893 811.701 2893 810.162 2893 808.622 2891.79 807.377 2890.28 807.323L2869.12 807.323C2862.74 807.323 2857.57 802.069 2857.57 795.58L2857.57 792.832C2857.57 786.124 2862.93 780.672 2869.54 780.656L2874.13 780.656C2874.16 780.656 2874.19 780.661 2874.22 780.661 2875.75 780.661 2876.99 779.399 2876.99 777.823 2876.99 776.262 2875.75 775 2874.22 775Z" fill="#445D73" fill-rule="evenodd"/><path d="M91.5836 5.60884C106.689 5.60884 107.359 25.5867 107.375 26.3758L107.375 225.932C105.035 228.146 95.7627 235.375 74.6227 235.375 48.6124 235.375 35.1288 219.698 33.3051 204.169 33.1668 203.073 32.3746 202.151 31.3112 201.823 30.6732 201.637 15.8816 196.993 16.19 180.749 16.3069 174.769 16.9822 170.606 18.338 167.709 18.338 167.709 19.5768 165.876 19.5928 165.654 19.8852 165.273 20.1989 164.934 20.5392 164.621 23.4156 161.894 28.5252 160.665 37.3246 160.665 38.5316 160.665 39.8023 160.686 41.1475 160.734 47.682 160.946 54.8704 161.046 62.5693 161.046 63.6699 161.046 64.7811 161.046 65.903 161.041L65.9721 161.041C65.9827 161.041 65.9934 161.041 66.004 161.041 75.2607 161.041 82.7576 168.525 82.7576 177.751L82.7576 187.994C82.7257 189.572 83.9964 190.875 85.5808 190.875 87.1653 190.875 88.452 189.572 88.4041 187.994L88.4041 177.751C88.4041 165.421 78.3711 155.421 66.004 155.421 65.9934 155.421 65.9827 155.421 65.9721 155.421L65.887 155.421C64.8768 155.427 63.8772 155.427 62.8883 155.427 55.1309 155.427 47.8946 155.31 41.323 155.114 39.9459 155.067 38.6379 155.045 37.3938 155.045 26.8504 155.045 20.6987 156.698 16.6685 160.527 16.2591 160.903 15.8816 161.316 15.536 161.729 5.55616 156.295 5.76352 142.091 5.76352 141.937L5.76352 141.868 5.76352 113.713C5.76352 105.816 7.70951 100.022 11.527 96.4572 15.4456 92.8345 20.3637 92.5803 21.6823 92.5803 21.895 92.5803 22.0173 92.5856 22.0226 92.5856 22.1024 92.5961 22.1821 92.5961 22.2565 92.5961 23.7878 92.5961 25.0639 91.3568 25.0639 89.7944L25.0639 63.9376C25.0639 58.6942 26.5101 54.6848 29.3652 52.0102 33.337 48.2763 39.0686 48.0114 40.6583 48.0114 40.9189 48.0114 41.0677 48.0167 41.0784 48.0167 41.1475 48.022 41.2113 48.022 41.2751 48.022 43.8804 48.022 45.1033 44.7383 43.0403 43.0488 42.062 42.2437 41.2007 41.0414 42.2002 38.2185 44.1941 32.6626 52.5203 24.4374 63.4253 17.3138 74.2612 10.2008 85.3044 5.60884 91.5836 5.60884ZM91.5677 0.00529635C75.2076 0.00529635 41.9929 22.0752 36.8833 36.3489 36.0592 38.6634 35.8997 40.8402 36.3995 42.7733 33.1828 43.3242 28.9877 44.6747 25.5477 47.879 21.4856 51.6659 19.4386 57.0841 19.4386 63.9535L19.4386 87.1038C16.4452 87.4481 11.8035 88.5921 7.76268 92.2943 2.70099 96.9392 0.122289 104.153 0.122289 113.713L0.122289 141.831C0.106338 143.033 0 159.669 12.6968 166.592 11.3569 170.108 10.6657 174.647 10.5487 180.643 10.2191 197.49 23.1392 204.513 27.935 206.537 29.4184 215.62 34.1824 223.893 41.4559 230.01 50.0055 237.192 61.4634 240.995 74.6227 240.995 102.457 240.995 112.001 229.29 112.399 228.797 112.793 228.299 113 227.701 113 227.065L113 26.307C112.809 17.2079 108.082 0.00529635 91.5677 0.00529635Z" fill="#445D73" fill-rule="evenodd" transform="matrix(-1 0 0 1 3013 749)"/><path d="M60.1706 0.00536889C60.1386 0.00536889 60.1065 0.00536889 60.0745 0.00536889L23.0965 0.00536889C10.347 0.0214756 0 10.4103 0 23.2312L0 24.1493C0 25.7116 1.26001 27.0002 2.81366 27.0002 4.38866 27.0002 5.66468 25.7116 5.64867 24.1493L5.64867 23.2312C5.66468 13.5511 13.4756 5.70176 23.0965 5.70176L60.0745 5.70176C60.0958 5.70176 60.1172 5.70176 60.1386 5.70176 61.7029 5.70176 62.9949 4.42934 62.9949 2.85625 62.9949 1.27243 61.7189 0.00536889 60.1706 0.00536889Z" fill="#445D73" fill-rule="evenodd" transform="matrix(-1 0 0 1 2963 934)"/><path d="M2.7265 0.00525672C1.21766 0.036797 0 1.27738 0 2.79132 0 4.30525 1.21766 5.53007 2.7265 5.58264L26.3597 5.58264C37.9751 5.58264 47.3616 14.9186 47.3775 26.4466L47.3775 40.2086C47.3775 41.7541 48.6428 42.9947 50.1887 42.9947 51.7293 42.9947 52.9946 41.7541 52.9946 40.2244L52.9946 26.4466C52.9788 11.8381 41.0722 0.0210269 26.3597 0.00525672Z" fill="#445D73" fill-rule="evenodd" transform="matrix(-1 0 0 1 2994 836)"/><path d="M2.75153 0C1.22467 0.0564956 0.00530161 1.37284 0.00530161 2.99992 0.00530161 4.62699 1.22467 5.93769 2.75153 5.99419L42.2697 5.99419C43.7966 5.93769 44.9947 4.62699 44.9947 2.99992 44.9947 1.37284 43.7966 0.0564956 42.2697 0Z" fill="#445D73" fill-rule="evenodd" transform="matrix(-1 0 0 1 2946 862)"/><path d="M15.5561 0C6.97064 0 0.0215309 6.70151 0.00538273 14.9619L0.00538273 17.8103C0.0538273 19.2863 1.308 20.4774 2.85823 20.4774 4.40846 20.4774 5.67878 19.2863 5.71646 17.8103L5.71646 14.9619C5.71646 9.73635 10.1195 5.49482 15.5561 5.47928L25.132 5.47928C30.7408 5.49482 35.2838 9.85028 35.2838 15.2467L35.2838 19.25C35.2838 20.7778 36.5757 22 38.142 22 39.7246 22 41.0003 20.7778 41.0003 19.25L41.0003 15.2467C40.9787 6.83616 33.8951 0 25.132 0Z" fill="#445D73" fill-rule="evenodd" transform="matrix(-1 0 0 1 2964 876)"/><path d="M35.1895 0C35.1575 0 35.1308 0 35.0988 0L2.74668 0C1.21067 0.0396614 0 1.37682 0 2.9916 0 4.62338 1.21067 5.96054 2.74668 5.99453L35.0988 5.99453C35.1308 5.99453 35.1575 6.0002 35.1895 6.0002 36.7362 6.0002 37.9948 4.66304 37.9948 2.9916 37.9948 1.33715 36.7362 0 35.1895 0Z" fill="#445D73" fill-rule="evenodd" transform="matrix(-1 0 0 1 2975 791)"/><path d="M22.7652 0C22.7329 0 22.7006 0 22.6737 0L17.97 0C8.04586 0 0.0161455 7.99124 0 17.832L0 20.5794C0.0161455 30.1957 7.85211 37.9945 17.5341 37.9945L39.2121 37.9945C40.7621 37.9624 41.9999 36.7009 41.9999 35.1614 41.9999 33.622 40.7621 32.3765 39.2121 32.3231L17.5341 32.3231C11.0059 32.3231 5.71014 27.0686 5.71014 20.5794L5.71014 17.832C5.71014 11.1236 11.1942 5.67137 17.97 5.65534L22.6737 5.65534C22.7006 5.65534 22.7329 5.66068 22.7652 5.66068 24.3259 5.66068 25.5961 4.39919 25.5961 2.82232 25.5961 1.26149 24.3259 0 22.7652 0Z" fill="#445D73" fill-rule="evenodd" transform="matrix(-1 0 0 1 2943 775)"/></g></svg>