<svg width="964" height="307" xmlns="http://www.w3.org/2000/svg" xmlns:xlink="http://www.w3.org/1999/xlink" xml:space="preserve" overflow="hidden"><g transform="translate(-2090 -1278)"><path d="M2967.5 1281.5 2091.5 1431.49 2967.48 1581.5C2933.11 1569.25 2906.95 1506.77 2906.95 1431.49 2906.95 1356.23 2933.14 1293.71 2967.5 1281.5Z" stroke="#E3E9ED" stroke-width="3.4375" stroke-linejoin="round" stroke-miterlimit="10" fill="none" fill-rule="evenodd"/><path d="M2423 1375.5C2406.72 1375.5 2393.5 1400.8 2393.5 1431.99 2393.5 1463.2 2406.72 1488.5 2423 1488.5 2439.3 1488.5 2452.5 1463.2 2452.5 1431.99 2452.5 1400.8 2439.3 1375.5 2423 1375.5Z" stroke="#A5B7C5" stroke-width="3.4375" stroke-linejoin="round" stroke-miterlimit="10" fill="none" fill-rule="evenodd"/><path d="M2593.49 1346.5C2582.62 1346.5 2572.19 1355.51 2564.51 1371.53 2556.82 1387.57 2552.5 1409.31 2552.5 1432 2552.5 1454.67 2556.82 1476.42 2564.51 1492.46 2572.19 1508.48 2582.62 1517.5 2593.49 1517.5 2604.37 1517.5 2614.79 1508.48 2622.48 1492.46 2630.17 1476.42 2634.5 1454.67 2634.5 1432 2634.5 1409.31 2630.17 1387.57 2622.48 1371.53 2614.79 1355.51 2604.37 1346.5 2593.49 1346.5Z" stroke="#A5B7C5" stroke-width="3.4375" stroke-linejoin="round" stroke-miterlimit="10" fill="none" fill-rule="evenodd"/><path d="M2787.5 1312.5C2772.91 1312.5 2758.92 1325.03 2748.61 1347.35 2738.29 1369.67 2732.5 1399.93 2732.5 1431.5 2732.5 1463.06 2738.29 1493.33 2748.61 1515.65 2758.92 1537.97 2772.91 1550.5 2787.5 1550.5 2802.08 1550.5 2816.08 1537.97 2826.39 1515.65 2836.7 1493.33 2842.5 1463.06 2842.5 1431.5 2842.5 1399.93 2836.7 1369.67 2826.39 1347.35 2816.08 1325.03 2802.08 1312.5 2787.5 1312.5Z" stroke="#869FB1" stroke-width="3.4375" stroke-linejoin="round" stroke-miterlimit="10" fill="none" fill-rule="evenodd"/><path d="M2980.33 1279.5 2979.67 1279.5Z" stroke="#000000" stroke-width="3.4375" stroke-linejoin="round" stroke-miterlimit="10" fill="none" fill-rule="evenodd"/><path d="M2979.18 1279.5C2975.2 1279.5 2971.31 1280.19 2967.5 1281.5L2979.5 1279.5Z" stroke="#000000" stroke-width="3.4375" stroke-linejoin="round" stroke-miterlimit="10" fill="#CFD9E0" fill-rule="evenodd"/><path d="M2980.33 1279.5 2967.73 1281.67C2933.55 1293.88 2907.5 1356.32 2907.5 1431.5 2907.5 1506.68 2933.55 1569.12 2967.73 1581.34L2980.34 1583.5 2980.36 1583.5C3020.23 1583.1 3052.5 1515.19 3052.5 1431.5 3052.5 1347.81 3020.23 1279.9 2980.34 1279.5Z" stroke="#CFD9E0" stroke-width="3.4375" stroke-linejoin="round" stroke-miterlimit="10" fill="none" fill-rule="evenodd"/><path d="M2282.51 1399.5C2271.45 1399.5 2262.5 1414.05 2262.5 1431.99 2262.5 1449.95 2271.45 1464.5 2282.51 1464.5 2293.55 1464.5 2302.5 1449.95 2302.5 1431.99 2302.5 1414.05 2293.55 1399.5 2282.51 1399.5Z" stroke="#BAC8D3" stroke-width="3.4375" stroke-linejoin="round" stroke-miterlimit="10" fill="none" fill-rule="evenodd"/></g></svg>