<svg width="123" height="123" xmlns="http://www.w3.org/2000/svg" xmlns:xlink="http://www.w3.org/1999/xlink" xml:space="preserve" overflow="hidden"><defs><clipPath id="clip0"><rect x="1313" y="660" width="123" height="123"/></clipPath></defs><g clip-path="url(#clip0)" transform="translate(-1313 -660)"><path d="M1313 721.5C1313 687.534 1340.53 660 1374.5 660 1408.47 660 1436 687.534 1436 721.5 1436 755.466 1408.47 783 1374.5 783 1340.53 783 1313 755.466 1313 721.5Z" fill="#F27405" fill-rule="evenodd"/><path d="M1387.5 685.335 1387.5 687.826 1382.22 687.826 1382.22 685.335ZM1389.99 690.08 1389.99 717.565 1379.82 717.565 1379.82 690.08ZM1383.74 719.894 1383.74 723.592 1381.74 723.592 1381.74 719.894ZM1387.99 719.894 1387.99 727.771 1385.98 727.771 1385.98 719.894ZM1391.74 737.254C1393.19 737.254 1394.39 738.455 1394.39 739.987 1394.39 741.513 1393.19 742.714 1391.74 742.714L1375.82 742.714 1375.82 737.254ZM1389.03 745.05C1388.95 747.135 1387.19 748.742 1385.1 748.742L1375.82 748.742 1375.82 745.05ZM1384.54 751.077 1384.54 752.92 1375.82 752.92 1375.82 751.077ZM1378.3 683.007C1377.74 683.007 1377.18 683.486 1377.18 684.134 1377.18 684.775 1377.74 685.254 1378.3 685.254L1379.58 685.254 1379.58 687.745 1378.3 687.745C1377.74 687.745 1377.18 688.231 1377.18 688.872L1377.18 692.004 1374.38 692.004C1369.5 692.004 1364.69 693.212 1360.53 695.46 1359.89 695.784 1359.73 696.506 1359.97 696.992 1360.21 697.39 1360.61 697.633 1361.01 697.633 1361.17 697.633 1361.41 697.633 1361.49 697.471 1365.41 695.386 1369.81 694.258 1374.3 694.258L1377.1 694.258 1377.1 705.827 1374.3 705.827C1365.57 705.827 1358.61 712.901 1358.61 721.581 1358.61 729.937 1365.01 736.768 1373.18 737.254L1373.18 748.742C1358.77 748.1 1347.33 736.208 1347.33 721.581 1347.33 713.063 1351.17 705.267 1357.89 700.043 1358.37 699.645 1358.53 698.916 1358.13 698.437 1357.89 698.106 1357.55 697.944 1357.22 697.944 1356.97 697.944 1356.72 698.025 1356.53 698.194 1353.01 700.927 1350.12 704.464 1348.13 708.318 1345.96 712.503 1345 716.998 1345 721.581 1345 737.49 1357.49 750.429 1373.18 751.077L1373.18 752.92 1358.69 752.92C1356.69 752.92 1355.17 754.533 1355.17 756.456 1355.17 758.468 1356.77 759.993 1358.69 759.993L1400.55 759.993C1402.55 759.993 1403.99 758.387 1403.99 756.456 1403.99 754.533 1402.39 752.92 1400.55 752.92L1395.19 752.92C1394.63 752.92 1394.15 753.487 1394.15 754.047 1394.15 754.688 1394.63 755.174 1395.19 755.174L1400.55 755.174C1401.19 755.174 1401.84 755.734 1401.84 756.456 1401.84 757.179 1401.19 757.746 1400.55 757.746L1359.01 757.746C1358.29 757.746 1357.73 757.179 1357.73 756.456 1357.73 755.734 1358.29 755.174 1359.01 755.174L1390.63 755.174C1391.19 755.174 1391.74 754.688 1391.74 754.047 1391.74 753.487 1391.19 752.92 1390.63 752.92L1386.7 752.92 1386.7 750.834C1389.34 750.112 1391.19 747.857 1391.19 745.05L1391.59 745.05C1394.31 745.05 1396.63 742.795 1396.63 739.987 1396.63 737.254 1394.39 734.999 1391.59 734.999L1374.62 734.999C1367.17 734.999 1361.17 728.972 1361.17 721.5 1361.17 714.109 1367.17 708.082 1374.62 708.082L1377.42 708.082 1377.42 718.685C1377.42 719.333 1377.9 719.813 1378.54 719.813L1379.34 719.813 1379.34 724.713C1379.34 725.361 1379.82 725.84 1380.38 725.84L1383.5 725.84 1383.5 728.817C1383.5 729.458 1383.99 729.937 1384.62 729.937L1388.95 729.937C1389.51 729.937 1389.99 729.458 1389.99 728.817L1389.99 719.813 1390.79 719.813C1391.43 719.813 1391.91 719.333 1391.91 718.685L1391.91 688.872C1391.91 688.231 1391.43 687.745 1390.79 687.745L1389.51 687.745 1389.51 685.254 1390.79 685.254C1391.43 685.254 1391.91 684.775 1391.91 684.134 1391.91 683.486 1391.43 683.007 1390.79 683.007Z" fill="#001633" fill-rule="evenodd"/><path d="M1372.46 699.365C1373.33 699.365 1373.9 700.099 1373.9 700.997 1373.9 701.895 1373.33 702.635 1372.46 702.635 1371.67 702.635 1371.02 701.895 1371.02 700.997 1371.02 700.099 1371.67 699.365 1372.46 699.365ZM1372.46 697C1370.59 697 1369.01 698.796 1369.01 700.997 1369.01 703.122 1370.52 705 1372.46 705 1374.41 705 1376 703.122 1376 700.997 1376 698.878 1374.49 697 1372.46 697Z" fill="#001633" fill-rule="evenodd"/><path d="M1369 740.394C1369.9 740.394 1370.63 741.052 1370.63 742.042 1370.63 742.948 1369.9 743.689 1369 743.689 1368.11 743.689 1367.36 742.948 1367.36 742.042 1367.36 741.052 1368.11 740.394 1369 740.394ZM1369 738C1366.88 738 1365 739.737 1365 742.042 1365 744.263 1366.71 745.993 1369 745.993 1371.2 745.993 1373 744.18 1373 742.042 1373 739.813 1371.2 738 1369 738Z" fill="#001633" fill-rule="evenodd"/></g></svg>