<svg width="1094" height="896" xmlns="http://www.w3.org/2000/svg" xmlns:xlink="http://www.w3.org/1999/xlink" xml:space="preserve" overflow="hidden"><g transform="translate(-502 -470)"><text fill="#FFFFFF" font-family="Proxima Nova Cn Bl,Proxima Nova Cn Bl_MSFontService,sans-serif" font-weight="900" font-stretch="condensed" font-size="50" transform="matrix(1 0 0 1 708.09 536)">REQUIREMENTS</text><text fill="#FFFFFF" font-family="Proxima Nova Alt Cn Lt,Proxima Nova Alt Cn Lt_MSFontService,sans-serif" font-weight="300" font-stretch="condensed" font-size="50" transform="matrix(1 0 0 1 708.09 597)">What would be needed? </text><text fill="#FFFFFF" font-family="Proxima Nova Alt Cn Lt,Proxima Nova Alt Cn Lt_MSFontService,sans-serif" font-weight="300" font-stretch="condensed" font-size="50" transform="matrix(1 0 0 1 708.09 657)">What is available?</text><text fill="#FFFFFF" font-family="Proxima Nova Cn Bl,Proxima Nova Cn Bl_MSFontService,sans-serif" font-weight="900" font-stretch="condensed" font-size="50" transform="matrix(1 0 0 1 983.433 1203)">TESTING AND EVALUATION</text><text fill="#FFFFFF" font-family="Proxima Nova Alt Cn Lt,Proxima Nova Alt Cn Lt_MSFontService,sans-serif" font-weight="300" font-stretch="condensed" font-size="50" transform="matrix(1 0 0 1 983.433 1264)">Is the concept functional?</text><text fill="#FFFFFF" font-family="Proxima Nova Alt Cn Lt,Proxima Nova Alt Cn Lt_MSFontService,sans-serif" font-weight="300" font-stretch="condensed" font-size="50" transform="matrix(1 0 0 1 983.433 1324)">What are the limitations?</text><path d="M588.5 1077.5 1464.5 927.507 588.517 777.503C622.888 789.753 649.045 852.232 649.045 927.507 649.045 1002.77 622.857 1065.29 588.5 1077.5Z" stroke="#FFFFFF" stroke-width="3.4375" stroke-linejoin="round" stroke-miterlimit="10" fill="none" fill-rule="evenodd"/><path d="M1133 984.497C1149.28 984.497 1162.5 958.974 1162.5 927.507 1162.5 896.026 1149.28 870.503 1133 870.503 1116.7 870.503 1103.5 896.026 1103.5 927.507 1103.5 958.974 1116.7 984.497 1133 984.497Z" stroke="#FFFFFF" stroke-width="3.4375" stroke-linejoin="round" stroke-miterlimit="10" fill="none" fill-rule="evenodd"/><path d="M962.507 1013.5C973.384 1013.5 983.805 1004.44 991.492 988.326 999.18 972.194 1003.5 950.321 1003.5 927.498 1003.5 904.693 999.18 882.82 991.492 866.688 983.805 850.573 973.384 841.5 962.507 841.5 951.63 841.5 941.212 850.573 933.524 866.688 925.833 882.82 921.5 904.693 921.5 927.498 921.5 950.321 925.833 972.194 933.524 988.326 941.212 1004.44 951.63 1013.5 962.507 1013.5Z" stroke="#FFFFFF" stroke-width="3.4375" stroke-linejoin="round" stroke-miterlimit="10" fill="none" fill-rule="evenodd"/><path d="M768.5 1046.5C783.09 1046.5 797.076 1033.97 807.392 1011.65 817.709 989.332 823.497 959.072 823.497 927.5 823.497 895.945 817.709 865.668 807.392 843.353 797.076 821.035 783.09 808.503 768.5 808.503 753.924 808.503 739.924 821.035 729.608 843.353 719.305 865.668 713.503 895.945 713.503 927.5 713.503 959.072 719.305 989.332 729.608 1011.65 739.924 1033.97 753.924 1046.5 768.5 1046.5Z" stroke="#FFFFFF" stroke-width="3.4375" stroke-linejoin="round" stroke-miterlimit="10" fill="none" fill-rule="evenodd"/><path d="M575.667 1079.5 576.333 1079.5Z" stroke="#FFFFFF" stroke-width="3.4375" stroke-linejoin="round" stroke-miterlimit="10" fill="none" fill-rule="evenodd"/><path d="M576.819 1079.5C580.797 1079.5 584.691 1078.81 588.497 1077.5L576.5 1079.5Z" stroke="#FFFFFF" stroke-width="3.4375" stroke-linejoin="round" stroke-miterlimit="10" fill="#CFD9E0" fill-rule="evenodd"/><path d="M575.674 1079.5 588.267 1077.33C622.445 1065.12 648.497 1002.68 648.497 927.502 648.497 852.323 622.445 789.881 588.267 777.662L575.66 775.503 575.644 775.503C535.773 775.897 503.503 843.809 503.503 927.502 503.503 1011.19 535.773 1079.1 575.66 1079.5Z" stroke="#FFFFFF" stroke-width="3.4375" stroke-linejoin="round" stroke-miterlimit="10" fill="none" fill-rule="evenodd"/><path d="M1273.49 960.497C1284.55 960.497 1293.5 945.727 1293.5 927.505 1293.5 909.27 1284.55 894.5 1273.49 894.5 1262.45 894.5 1253.5 909.27 1253.5 927.505 1253.5 945.727 1262.45 960.497 1273.49 960.497Z" stroke="#FFFFFF" stroke-width="3.4375" stroke-linejoin="round" stroke-miterlimit="10" fill="none" fill-rule="evenodd"/></g></svg>