<svg width="1130" height="1191" xmlns="http://www.w3.org/2000/svg" xmlns:xlink="http://www.w3.org/1999/xlink" xml:space="preserve" overflow="hidden"><g transform="translate(-1837 -333)"><path d="M2290.16 334.916 2290.16 409.815C1932.83 484.715 1737.5 875.023 1893.68 1202.08L2059.02 1090.98C2041.11 1048.96 2031.95 1004.02 2031.95 959.077 2034.86 796.795 2136.9 655.735 2290.16 607.883L2290.16 676.956 2455.5 511.762 2290.16 334.916Z" stroke="#A5B7C6" stroke-width="3.4375" stroke-linejoin="round" stroke-miterlimit="10" fill="#001631" fill-rule="evenodd" fill-opacity="0.6"/><path d="M2505.5 406.916 2505.5 604.979C2661.75 652.83 2770.08 796.8 2770.08 959.078 2770.08 1001.1 2764.25 1043.13 2749.25 1082.24L2673.83 1028.15 2719.25 1259.08 2959.25 1223.3 2914.25 1190.01C2947.58 1118.03 2965.5 1040.22 2965.5 959.078 2965.5 689.03 2770.08 457.68 2505.5 406.916Z" stroke="#869FB2" stroke-width="3.4375" stroke-linejoin="round" stroke-miterlimit="10" fill="#001633" fill-rule="evenodd" fill-opacity="0.6"/><path d="M2013.87 1183.92 1968.5 1414.77 2025.53 1375.67C2132.5 1473.83 2268.2 1522.5 2403.47 1522.5 2542.08 1522.5 2680.28 1471.34 2788.08 1369.85L2788.08 1366.93 2623.25 1255.88C2558.73 1304.96 2481.31 1329.91 2403.89 1329.91 2329.8 1329.91 2255.29 1307.04 2190.77 1261.7L2250.71 1223.02 2013.87 1183.92Z" stroke="#5F7D95" stroke-width="3.4375" stroke-linejoin="round" stroke-miterlimit="10" fill="#001631" fill-rule="evenodd" fill-opacity="0.6"/></g></svg>