<svg viewBox="0 0 24 24" xmlns="http://www.w3.org/2000/svg"><path d="m20.87 17.25-2.71-4.68a6.9 6.9 0 0 0 .84-3.32 7 7 0 0 0 -14 0 6.9 6.9 0 0 0 .84 3.32l-2.71 4.68a1 1 0 0 0 .87 1.5h2.87l1.46 2.46a1 1 0 0 0 .18.22 1 1 0 0 0 .69.28h.14a1 1 0 0 0 .73-.49l1.93-3.32 1.93 3.35a1 1 0 0 0 .73.48h.14a1 1 0 0 0 .7-.28.87.87 0 0 0 .17-.21l1.46-2.46h2.87a1 1 0 0 0 .87-.5 1 1 0 0 0 0-1.03zm-11.68 1.53-.89-1.49a1 1 0 0 0 -.85-.49h-1.73l1.43-2.48a7 7 0 0 0 3.57 1.84zm2.81-4.53a5 5 0 1 1 5-5 5 5 0 0 1 -5 5zm4.55 2.55a1 1 0 0 0 -.85.49l-.89 1.49-1.52-2.65a7.06 7.06 0 0 0 3.56-1.84l1.43 2.48z"/></svg>