<?xml version="1.0" encoding="UTF-8"?>
<svg width="1200pt" height="1200pt" fill="#fff" version="1.1" viewBox="0 0 1200 1200" xmlns="http://www.w3.org/2000/svg">
 <path d="m975 75c-70.613 0-90.617 75.992-60.602 119.77l-123.94 114.86c-14.043-18.602-36.273-29.195-59.566-28.387-25.148-1.1016-48.977 11.289-62.512 32.512l-106.35-44.773c7.5-106.48-159.38-110.38-148.88 1.5391l-109.05 78.223c-13.906-19.57-36.719-30.844-60.711-30-99.523 0-99.523 150 0 150 21.777 1.1406 42.891-7.6875 57.379-23.984 14.488-16.297 20.777-38.297 17.094-59.789l108.39-77.719c14.941 19.523 38.281 30.777 62.863 30.316 24.582-0.46484 47.477-12.59 61.676-32.66l105.99 44.645v-0.003906c-2.0039 21.18 5.1094 42.211 19.562 57.82 14.453 15.613 34.875 24.324 56.145 23.953s41.375-9.7891 55.277-25.895c13.898-16.102 20.277-37.367 17.535-58.465l138.21-128.08c20.715 9.4453 44.594 9.0156 64.953-1.1719 20.363-10.188 35.027-29.035 39.895-51.277 4.8633-22.238-0.58984-45.488-14.836-63.246-14.25-17.758-35.762-28.121-58.531-28.191zm-731.61 356.25c-13.398 0-25.777-7.1484-32.477-18.75s-6.6992-25.898 0-37.5 19.078-18.75 32.477-18.75c13.398 0 25.777 7.1484 32.477 18.75 6.6992 11.602 6.6992 25.898 0 37.5-6.6992 11.602-19.078 18.75-32.477 18.75zm243.75-131.25c-13.398 0-25.777-7.1484-32.477-18.75s-6.6992-25.898 0-37.5 19.078-18.75 32.477-18.75c13.398 0 25.777 7.1484 32.477 18.75 6.6992 11.602 6.6992 25.898 0 37.5-6.6992 11.602-19.078 18.75-32.477 18.75zm243.75 93.75c-13.398 0-25.777-7.1484-32.477-18.75s-6.6992-25.898 0-37.5 19.078-18.75 32.477-18.75c13.398 0 25.777 7.1484 32.477 18.75 6.6992 11.602 6.6992 25.898 0 37.5-6.6992 11.602-19.078 18.75-32.477 18.75zm244.11-206.25c-13.398 0-25.777-7.1484-32.477-18.75-6.6992-11.602-6.6992-25.898 0-37.5 6.6992-11.602 19.078-18.75 32.477-18.75s25.777 7.1484 32.477 18.75c6.6992 11.602 6.6992 25.898 0 37.5-6.6992 11.602-19.078 18.75-32.477 18.75zm168.75 937.5h-75v-787.5c0-4.9727-1.9766-9.7422-5.4922-13.258-3.5156-3.5156-8.2852-5.4922-13.258-5.4922h-150c-4.9727 0-9.7422 1.9766-13.258 5.4922-3.5156 3.5156-5.4922 8.2852-5.4922 13.258v787.5h-56.25v-581.25c0-4.9727-1.9766-9.7422-5.4922-13.258-3.5156-3.5156-8.2852-5.4922-13.258-5.4922h-150c-4.9727 0-9.7422 1.9766-13.258 5.4922-3.5156 3.5156-5.4922 8.2852-5.4922 13.258v581.25h-56.25v-675c0-4.9727-1.9766-9.7422-5.4922-13.258-3.5156-3.5156-8.2852-5.4922-13.258-5.4922h-150c-4.9727 0-9.7422 1.9766-13.258 5.4922-3.5156 3.5156-5.4922 8.2852-5.4922 13.258v675h-56.25v-543.75c0-4.9727-1.9766-9.7422-5.4922-13.258-3.5156-3.5156-8.2852-5.4922-13.258-5.4922h-150c-4.9727 0-9.7422 1.9766-13.258 5.4922-3.5156 3.5156-5.4922 8.2852-5.4922 13.258v543.75h-75v-1068.8c0-6.6992-3.5742-12.887-9.375-16.238-5.8008-3.3477-12.949-3.3477-18.75 0-5.8008 3.3516-9.375 9.5391-9.375 16.238v1087.5c0 4.9727 1.9766 9.7422 5.4922 13.258 3.5156 3.5156 8.2852 5.4922 13.258 5.4922h1087.5c6.6992 0 12.887-3.5742 16.238-9.375 3.3477-5.8008 3.3477-12.949 0-18.75-3.3516-5.8008-9.5391-9.375-16.238-9.375zm-956.25 0v-525h112.5v525zm243.75 0v-656.25h112.5v656.25zm243.75 0v-562.5h112.5v562.5zm243.75 0v-768.75h112.5v768.75z" />
</svg>
