<?xml version="1.0" encoding="UTF-8"?>
<svg width="1200pt" height="1200pt" version="1.1" viewBox="0 0 1200 1200" fill="#fff" xmlns="http://www.w3.org/2000/svg">
 <g>
  <path d="m456.37 1119.8c20.25-0.046875 37.922-13.688 43.031-33.281l250.03-950.48c6.2812-23.812-7.9219-48.141-31.734-54.422s-48.141 7.9688-54.422 31.734l-249.98 950.53c-3 11.438-1.3594 23.578 4.5938 33.797s15.703 17.625 27.141 20.625c3.7031 0.98438 7.5469 1.4531 11.344 1.5z"/>
  <path d="m267.19 903.56c17.391 17.391 45.609 17.391 63 0s17.391-45.562 0-63l-240.71-240.56 240.61-240.56c8.8594-8.25 14.016-19.734 14.297-31.828 0.23438-12.094-4.5-23.812-13.031-32.344-8.5781-8.5781-20.25-13.312-32.344-13.078s-23.578 5.3906-31.828 14.25l-241.4 241.4c-34.312 34.406-34.312 90.047 0 124.45z"/>
  <path d="m869.9 296.44c-17.344 17.391-17.344 45.609 0 63l240.61 240.56-240.61 240.56c-8.8594 8.25-14.016 19.734-14.297 31.828-0.23438 12.094 4.5 23.812 13.031 32.344 8.5781 8.5781 20.25 13.312 32.344 13.078s23.578-5.3906 31.828-14.25l241.4-241.4c34.312-34.406 34.312-90.047 0-124.45l-241.4-241.4c-17.438-17.297-45.562-17.203-62.906 0.14062z"/>
 </g>
</svg>
