<?xml version="1.0" encoding="UTF-8"?>
<svg width="1200pt" height="1200pt" version="1.1" viewBox="0 0 1200 1200" xmlns="http://www.w3.org/2000/svg">
 <g>
  <path d="m210.24 974.86c0 72.516 156.61 150.14 389.76 150.14s389.76-77.625 389.76-150.14v-170.81s-0.09375 0.09375-0.14062 0.09375c-1.3594 1.3125-2.9062 2.625-4.3125 3.9375-1.8281 1.6875-3.5625 3.3281-5.4844 4.9688-1.5469 1.3125-3.2812 2.5781-4.875 3.8906-2.0156 1.5938-3.9375 3.1875-6.0469 4.7812-1.875 1.4062-3.9375 2.7188-5.9062 4.125-2.0156 1.4062-3.9844 2.8594-6.0938 4.2656-2.2031 1.4531-4.5938 2.8594-6.9375 4.3125-2.0625 1.2656-4.0312 2.5312-6.1406 3.7969-2.5312 1.4531-5.25 2.9062-7.875 4.3125-2.0625 1.125-4.0781 2.2969-6.2344 3.4219-2.9531 1.5469-6.0938 3-9.1406 4.5-2.0156 0.98438-3.9375 1.9688-6.0469 2.9531-10.453 4.875-21.562 9.4688-33.375 13.875-0.65625 0.23438-1.2656 0.42188-1.9688 0.60938-76.969 28.969-176.06 44.953-279.24 44.953-103.22 0-202.74-15.984-279.42-45-0.60938-0.14062-1.2188-0.32812-1.7812-0.5625-5.9062-2.2031-11.625-4.4531-17.156-6.75s-10.922-4.6875-16.125-7.0781c-4.2188-1.9688-8.25-3.9844-12.234-6-0.9375-0.46875-1.9688-0.9375-2.9062-1.4062-3.9375-2.0625-7.6406-4.125-11.344-6.2344-0.89062-0.51562-1.875-1.0312-2.7656-1.5469-3.1875-1.875-6.1875-3.7969-9.1875-5.7188-1.2656-0.79688-2.625-1.5938-3.8438-2.3906-2.5312-1.6875-4.875-3.375-7.2656-5.0625-1.5469-1.125-3.2344-2.2031-4.7344-3.3281-2.0156-1.5-3.8438-3.0469-5.7656-4.5938-1.7344-1.3594-3.5156-2.7188-5.1562-4.125-1.5938-1.3594-3-2.7188-4.5-4.0781-1.7812-1.5938-3.6562-3.2344-5.3438-4.875-0.046874-0.046875-0.09375-0.046875-0.09375-0.09375v170.81z"/>
  <path d="m210.24 724.82c0 38.625 44.906 78.469 120.14 106.69 0.70313 0.1875 1.4062 0.375 2.0156 0.60938 72.703 27.844 167.72 43.125 267.61 43.125 99.844 0 194.53-15.328 267.61-43.172 0.70312-0.28125 1.4062-0.46875 2.1562-0.65625 9.375-3.5156 18.328-7.2188 26.719-11.109 58.922-27.094 93.234-61.781 93.234-95.531v-170.48s-0.09375 0.09375-0.14062 0.09375c-1.3594 1.3125-2.9062 2.625-4.3125 3.9375-1.8281 1.6875-3.5625 3.3281-5.4844 4.9688-1.5469 1.3125-3.2812 2.5781-4.875 3.8906-2.0156 1.5938-3.9375 3.1875-6.0469 4.7812-1.875 1.4062-3.9375 2.7188-5.9062 4.125-2.0156 1.4062-3.9844 2.8594-6.0938 4.2656-2.2031 1.4531-4.5938 2.8594-6.9375 4.3125-2.0625 1.2656-4.0312 2.5312-6.1406 3.7969-2.5312 1.4531-5.25 2.9062-7.875 4.3125-2.0625 1.125-4.0781 2.2969-6.2344 3.4219-2.9531 1.5469-6.0938 3-9.1406 4.5-2.0156 0.98438-3.9375 1.9688-6.0469 2.9531-10.453 4.875-21.562 9.4688-33.375 13.875-77.062 29.344-177 45.562-281.16 45.562-104.2 0-204.47-16.219-281.34-45.609-5.9062-2.2031-11.625-4.4531-17.156-6.75-0.375-0.1875-0.75-0.32812-1.125-0.46875-5.1562-2.1562-10.172-4.3594-15.047-6.6094-0.51562-0.23438-0.98438-0.46875-1.5-0.75-4.6875-2.2031-9.2344-4.4062-13.594-6.7031-1.5469-0.79688-2.9531-1.6406-4.5-2.4844-3.2812-1.7812-6.5625-3.4688-9.6094-5.2969-1.5-0.84375-2.8594-1.7812-4.3125-2.6719-2.9531-1.7812-5.9531-3.5625-8.7188-5.3906-1.7344-1.125-3.3281-2.3438-5.0156-3.5156-2.3438-1.5938-4.7344-3.1875-6.9375-4.875-1.8281-1.3594-3.5156-2.7656-5.25-4.1719-1.875-1.5-3.8438-2.9531-5.6719-4.5-1.9688-1.6406-3.7031-3.3281-5.5312-5.0156-1.4062-1.3125-2.9531-2.5781-4.3125-3.8906-0.046875-0.046875-0.09375-0.09375-0.14062-0.09375v170.44z"/>
  <path d="m331.97 332.76c72.234 27.656 167.39 42.844 268.08 42.844s195.47-15.188 267.98-42.844c76.266-28.641 121.78-68.906 121.78-107.67 0-72.516-156.61-150.14-389.76-150.14-233.16 0.046876-389.81 77.672-389.81 150.19 0 38.766 45.469 79.031 121.69 107.62z"/>
  <path d="m210.24 475.18c0 38.906 45.469 78.984 121.64 107.25 72.891 27.891 168.05 43.219 268.13 43.219 100.08 0 194.9-15.328 267.98-43.172 76.312-28.312 121.78-68.438 121.78-107.34v-170.86s-0.046876 0.046874-0.09375 0.09375c-1.7812 1.7344-3.7031 3.4219-5.625 5.1094-1.4062 1.2656-2.7188 2.5781-4.2188 3.8438-1.9219 1.6406-4.0312 3.2344-6.0938 4.8281-1.5938 1.2656-3.1406 2.5781-4.8281 3.8438-2.0156 1.5-4.2188 3-6.375 4.4531-1.875 1.3125-3.7031 2.6719-5.6719 3.9844s-4.125 2.5781-6.1875 3.8438c-2.2969 1.4062-4.5 2.8594-6.8438 4.2656-2.1562 1.2656-4.5 2.4844-6.75 3.75-2.4375 1.3594-4.7812 2.7188-7.3594 4.0781-2.3906 1.2656-4.9688 2.4375-7.4062 3.6562-2.5781 1.2656-5.0625 2.5781-7.7344 3.8438-2.5312 1.2188-5.25 2.3438-7.875 3.4688-2.7656 1.2188-5.4375 2.4844-8.25 3.6562-5.5312 2.3438-11.297 4.5938-17.156 6.7969-76.547 29.156-176.48 45.234-281.26 45.234-104.77 0-205.08-16.078-281.34-45.281-11.766-4.4062-22.875-9.0938-33.328-13.969-0.75-0.32813-1.4062-0.70313-2.1094-1.0312-4.4531-2.1094-8.8125-4.2656-13.031-6.4688-1.0781-0.5625-2.0625-1.1719-3.1406-1.7344-3.75-2.0156-7.4531-4.0312-10.969-6.0938-1.0781-0.65625-2.0625-1.3125-3.1406-1.9688-3.375-2.0625-6.75-4.0781-9.9375-6.1875-1.2656-0.84375-2.3906-1.6875-3.6094-2.5312-2.8125-1.9688-5.7188-3.8906-8.3438-5.8594-1.5469-1.125-2.9062-2.3438-4.4062-3.5156-2.2031-1.7344-4.4062-3.4219-6.4688-5.1562-1.5-1.3125-2.9062-2.625-4.3125-3.9375-1.8281-1.6875-3.75-3.2812-5.4844-5.0156-0.046875-0.046876-0.09375-0.046876-0.09375-0.09375v170.86z"/>
 </g>
</svg>
